<?xml version="1.0" encoding="UTF-8" standalone="no"?>
<!-- Created with Inkscape (http://www.inkscape.org/) -->

<svg
   xmlns:dc="http://purl.org/dc/elements/1.1/"
   xmlns:cc="http://creativecommons.org/ns#"
   xmlns:rdf="http://www.w3.org/1999/02/22-rdf-syntax-ns#"
   xmlns:svg="http://www.w3.org/2000/svg"
   xmlns="http://www.w3.org/2000/svg"
   version="1.1"
   width="265.74805"
   height="94.169594"
   id="svg2">
  <defs
     id="defs4">
    <clipPath
       id="clipPath2836">
      <path
         d="m 172.474,240.13 498.666,0 0,178.027 -498.666,0 0,-178.027 z"
         id="path2838" />
    </clipPath>
  </defs>
  <metadata
     id="metadata7">
    <rdf:RDF>
      <cc:Work
         rdf:about="">
        <dc:format>image/svg+xml</dc:format>
        <dc:type
           rdf:resource="http://purl.org/dc/dcmitype/StillImage" />
        <dc:title></dc:title>
      </cc:Work>
    </rdf:RDF>
  </metadata>
  <g
     transform="translate(-80.26168,-505.23549)"
     id="layer1">
    <g
       transform="matrix(0.5646431,0,0,-0.5646431,-32.944857,734.99283)"
       id="g2826">
      <g
         transform="translate(318.5742,368.0938)"
         id="g2828">
        <path
           d="m 0,0 0,-13.035 17.443,0 0,-12.243 -17.443,0 0,-25.985 -14.709,0 0,63.773 34.177,0 0,-12.51"
           id="path2830"
           style="fill:#155196;fill-opacity:1;fill-rule:nonzero;stroke:none" />
      </g>
      <g
         id="g2832">
        <g
           clip-path="url(#clipPath2836)"
           id="g2834">
          <g
             transform="translate(364.375,315.9502)"
             id="g2840">
            <path
               d="m 0,0 c -12.773,0 -22.375,7.136 -22.375,20.083 l 0,44.57 14.975,0 0,-44.746 c 0,-4.492 3.259,-7.134 7.4,-7.134 4.137,0 7.399,2.642 7.399,7.134 l 0,44.746 14.973,0 0,-44.57 C 22.372,7.136 12.77,0 0,0"
               id="path2842"
               style="fill:#155196;fill-opacity:1;fill-rule:nonzero;stroke:none" />
          </g>
          <g
             transform="translate(421.3574,341.9336)"
             id="g2844">
            <path
               d="m 0,0 c -1.673,1.146 -3.613,1.851 -7.138,1.851 l -7.133,0 0,-16.119 c 1.411,-0.441 3.875,-0.793 5.991,-0.793 7.75,0 11.187,2.642 11.187,8.542 C 2.907,-3.698 1.848,-1.32 0,0 m -8.367,28.628 c -2.203,0 -4.58,-0.354 -5.904,-0.793 l 0,-15.503 7.046,0 c 3.35,0 5.552,0.705 6.87,1.851 1.5,1.232 2.467,3.434 2.467,6.164 0,5.11 -2.907,8.281 -10.479,8.281 m 0.087,-54.787 c -7.755,0 -15.59,1.496 -20.17,3.434 l 0,59.014 c 5.107,2.026 12.507,3.438 20.17,3.438 17.085,0 24.575,-7.488 24.575,-17.793 0,-6.783 -4.405,-12.156 -9.516,-13.741 l 0,-0.177 C 11.715,6.255 17.702,0.882 17.702,-7.573 17.702,-19.201 9.07,-26.159 -8.28,-26.159"
               id="path2846"
               style="fill:#155196;fill-opacity:1;fill-rule:nonzero;stroke:none" />
          </g>
          <g
             transform="translate(222.9922,316.9072)"
             id="g2848">
            <path
               d="m 0,0 22.5,0 c 0,24.854 -20.147,45 -45,45 l 0,-22.5 C -10.072,22.5 0,12.427 0,0"
               id="path2850"
               style="fill:#155196;fill-opacity:1;fill-rule:nonzero;stroke:none" />
          </g>
          <g
             transform="translate(267.9922,316.9072)"
             id="g2852">
            <path
               d="m 0,0 22.5,0 c 0,49.707 -40.293,90 -90,90 l 0,-22.5 C -30.221,67.5 0,37.28 0,0"
               id="path2854"
               style="fill:#46ae33;fill-opacity:1;fill-rule:nonzero;stroke:none" />
          </g>
          <g
             transform="translate(200.4922,271.9072)"
             id="g2856">
            <path
               d="m 0,0 0,-22.5 c 37.279,0 67.5,30.22 67.5,67.5 L 45,45 C 45,20.146 24.853,0 0,0"
               id="path2858"
               style="fill:#155196;fill-opacity:1;fill-rule:nonzero;stroke:none" />
          </g>
          <g
             transform="translate(310.9971,296.9971)"
             id="g2860">
            <path
               d="m 0,0 0,-5.205 6.965,0 0,-4.888 -6.965,0 0,-10.376 -5.875,0 0,25.464 13.647,0 0,-4.995"
               id="path2862"
               style="fill:#155196;fill-opacity:1;fill-rule:nonzero;stroke:none" />
          </g>
          <g
             transform="translate(328.6914,291.4063)"
             id="g2864">
            <path
               d="m 0,0 c -2.037,0 -3.092,-1.828 -3.092,-5.31 0,-3.484 1.055,-5.346 3.092,-5.346 2.043,0 3.096,1.862 3.096,5.346 C 3.096,-1.828 2.043,0 0,0 m 0,-15.3 c -5.662,0 -8.895,4.255 -8.895,9.919 0,5.662 3.233,9.883 8.895,9.883 5.666,0 8.9,-4.221 8.9,-9.883 C 8.9,-11.045 5.666,-15.3 0,-15.3"
               id="path2866"
               style="fill:#155196;fill-opacity:1;fill-rule:nonzero;stroke:none" />
          </g>
          <g
             transform="translate(350.5391,276.5283)"
             id="g2868">
            <path
               d="m 0,0 0,12.31 c 0,1.582 -0.949,2.532 -2.672,2.532 -0.807,0 -1.687,-0.176 -2.18,-0.386 l 0,-14.456 -5.802,0 0,18.008 c 2.107,0.808 4.605,1.372 7.912,1.372 5.945,0 8.548,-2.287 8.548,-6.401 L 5.806,0"
               id="path2870"
               style="fill:#155196;fill-opacity:1;fill-rule:nonzero;stroke:none" />
          </g>
          <g
             transform="translate(369.9219,291.0547)"
             id="g2872">
            <path
               d="m 0,0 c -0.317,0.14 -1.09,0.281 -1.758,0.281 -2.462,0 -3.726,-2.146 -3.726,-5.31 0,-3.552 1.372,-5.417 3.796,-5.417 0.633,0 1.371,0.104 1.688,0.246 L 0,0 z m -1.582,-14.948 c -6.295,0 -9.705,3.517 -9.705,9.848 0,5.874 3.025,9.707 8.894,9.707 0.846,0 1.866,-0.175 2.393,-0.351 l 0,8.828 5.805,0 0,-26.66 c -1.477,-0.775 -4.292,-1.372 -7.387,-1.372"
               id="path2874"
               style="fill:#155196;fill-opacity:1;fill-rule:nonzero;stroke:none" />
          </g>
          <g
             transform="translate(388.6748,285.252)"
             id="g2876">
            <path
               d="m 0,0 c -3.13,-0.142 -5.487,-0.493 -5.487,-2.744 0,-1.548 1.299,-2.393 3.377,-2.393 0.81,0 1.722,0.142 2.11,0.283 L 0,0 z m -1.935,-9.146 c -5.98,0 -8.933,2.217 -8.933,6.26 0,5.032 5.135,6.192 10.868,6.509 L 0,4.36 c 0,1.514 -1.056,2.217 -3.025,2.217 -1.828,0 -4.01,-0.598 -5.38,-1.162 l -1.41,3.869 c 1.69,0.669 4.54,1.372 7.495,1.372 5.17,0 7.772,-1.969 7.772,-6.999 l 0,-11.43 C 4.01,-8.514 1.09,-9.146 -1.935,-9.146"
               id="path2878"
               style="fill:#155196;fill-opacity:1;fill-rule:nonzero;stroke:none" />
          </g>
          <g
             transform="translate(395.6426,276.5283)"
             id="g2880">
            <path
               d="m 0,0 6.787,14.456 -6.117,0 0,4.502 14.137,0 -6.787,-14.456 6.859,0 0,-4.502"
               id="path2882"
               style="fill:#155196;fill-opacity:1;fill-rule:nonzero;stroke:none" />
          </g>
          <path
             d="m 412.813,295.486 5.803,0 0,-18.958 -5.803,0 0,18.958 z m 2.884,2.603 c -1.759,0 -3.2,1.335 -3.2,2.99 0,1.653 1.441,3.025 3.2,3.025 1.758,0 3.235,-1.372 3.235,-3.025 0,-1.655 -1.477,-2.99 -3.235,-2.99"
             id="path2884"
             style="fill:#155196;fill-opacity:1;fill-rule:nonzero;stroke:none" />
          <g
             transform="translate(429.834,291.4063)"
             id="g2886">
            <path
               d="m 0,0 c -2.037,0 -3.092,-1.828 -3.092,-5.31 0,-3.484 1.055,-5.346 3.092,-5.346 2.043,0 3.096,1.862 3.096,5.346 C 3.096,-1.828 2.043,0 0,0 m 0,-15.3 c -5.662,0 -8.895,4.255 -8.895,9.919 0,5.662 3.233,9.883 8.895,9.883 5.666,0 8.9,-4.221 8.9,-9.883 C 8.9,-11.045 5.666,-15.3 0,-15.3"
               id="path2888"
               style="fill:#155196;fill-opacity:1;fill-rule:nonzero;stroke:none" />
          </g>
          <g
             transform="translate(451.6816,276.5283)"
             id="g2890">
            <path
               d="m 0,0 0,12.31 c 0,1.582 -0.947,2.532 -2.672,2.532 -0.807,0 -1.687,-0.176 -2.18,-0.386 l 0,-14.456 -5.802,0 0,18.008 c 2.107,0.808 4.604,1.372 7.912,1.372 5.945,0 8.548,-2.287 8.548,-6.401 L 5.806,0"
               id="path2892"
               style="fill:#155196;fill-opacity:1;fill-rule:nonzero;stroke:none" />
          </g>
          <g
             transform="translate(468.7119,291.8291)"
             id="g2894">
            <path
               d="m 0,0 c -2.04,0 -3.622,-1.409 -3.657,-4.539 l 6.682,0.845 C 3.025,-1.302 1.862,0 0,0 m 8.548,-6.577 -11.82,-1.548 c 0.458,-2.075 2.252,-3.096 4.607,-3.096 1.9,0 3.94,0.456 5.348,1.162 L 8.3,-14.351 c -1.722,-0.808 -4.572,-1.372 -7.422,-1.372 -6.575,0 -9.811,4.292 -9.811,9.919 0,5.804 3.375,9.883 9.074,9.883 5.522,0 8.474,-3.693 8.474,-8.898 0,-0.599 0,-1.16 -0.067,-1.758"
               id="path2896"
               style="fill:#155196;fill-opacity:1;fill-rule:nonzero;stroke:none" />
          </g>
          <g
             transform="translate(496.1875,276.1768)"
             id="g2898">
            <path
               d="m 0,0 c -5.101,0 -8.936,2.85 -8.936,8.021 l 0,17.794 5.981,0 0,-17.866 c 0,-1.794 1.3,-2.848 2.955,-2.848 1.652,0 2.955,1.054 2.955,2.848 l 0,17.866 5.977,0 0,-17.794 C 8.932,2.85 5.097,0 0,0"
               id="path2900"
               style="fill:#155196;fill-opacity:1;fill-rule:nonzero;stroke:none" />
          </g>
          <g
             transform="translate(518.9824,291.2646)"
             id="g2902">
            <path
               d="m 0,0 c -0.423,0.142 -1.09,0.247 -1.865,0.247 -2.25,0 -3.691,-1.619 -3.691,-4.995 0,-3.34 1.37,-4.959 3.623,-4.959 0.665,0 1.51,0.213 1.933,0.423 L 0,0 z m -2.92,-22.648 c -3.341,0 -5.838,0.631 -7.665,1.51 l 1.582,4.502 c 1.3,-0.669 3.271,-1.125 5.45,-1.125 2.463,0 3.553,1.197 3.553,3.448 l 0,0.913 c -0.878,-0.386 -2.181,-0.596 -3.271,-0.596 -4.854,0 -8.089,3.41 -8.089,9.038 0,6.296 3.762,9.602 10.059,9.602 2.883,0 5.416,-0.598 7.033,-1.373 l 0,-17.584 c 0,-5.523 -3.447,-8.335 -8.652,-8.335"
               id="path2904"
               style="fill:#155196;fill-opacity:1;fill-rule:nonzero;stroke:none" />
          </g>
          <g
             transform="translate(535.9043,291.4063)"
             id="g2906">
            <path
               d="m 0,0 c -2.04,0 -3.092,-1.828 -3.092,-5.31 0,-3.484 1.052,-5.346 3.092,-5.346 2.04,0 3.096,1.862 3.096,5.346 C 3.096,-1.828 2.04,0 0,0 m 0,-15.3 c -5.662,0 -8.897,4.255 -8.897,9.919 0,5.662 3.235,9.883 8.897,9.883 5.665,0 8.897,-4.221 8.897,-9.883 C 8.897,-11.045 5.665,-15.3 0,-15.3"
               id="path2908"
               style="fill:#155196;fill-opacity:1;fill-rule:nonzero;stroke:none" />
          </g>
          <g
             transform="translate(566.0898,286.5527)"
             id="g2910">
            <path
               d="m 0,0 c -0.668,0.457 -1.442,0.737 -2.851,0.737 l -2.846,0 0,-6.435 c 0.559,-0.176 1.547,-0.318 2.389,-0.318 3.095,0 4.468,1.058 4.468,3.413 C 1.16,-1.477 0.737,-0.527 0,0 m -3.343,11.431 c -0.878,0 -1.827,-0.142 -2.354,-0.318 l 0,-6.188 2.812,0 c 1.337,0 2.217,0.28 2.742,0.737 0.6,0.493 0.985,1.372 0.985,2.463 0,2.039 -1.159,3.306 -4.185,3.306 m 0.035,-21.877 c -3.092,0 -6.225,0.597 -8.055,1.372 l 0,23.564 c 2.043,0.811 4.996,1.372 8.055,1.372 6.823,0 9.816,-2.991 9.816,-7.104 0,-2.708 -1.761,-4.854 -3.801,-5.487 l 0,-0.07 c 1.971,-0.703 4.36,-2.849 4.36,-6.225 0,-4.644 -3.447,-7.422 -10.375,-7.422"
               id="path2912"
               style="fill:#155196;fill-opacity:1;fill-rule:nonzero;stroke:none" />
          </g>
          <g
             transform="translate(583.7148,291.4063)"
             id="g2914">
            <path
               d="m 0,0 c -2.04,0 -3.093,-1.828 -3.093,-5.31 0,-3.484 1.053,-5.346 3.093,-5.346 2.04,0 3.095,1.862 3.095,5.346 C 3.095,-1.828 2.04,0 0,0 m 0,-15.3 c -5.663,0 -8.897,4.255 -8.897,9.919 0,5.662 3.234,9.883 8.897,9.883 5.665,0 8.897,-4.221 8.897,-9.883 C 8.897,-11.045 5.665,-15.3 0,-15.3"
               id="path2916"
               style="fill:#155196;fill-opacity:1;fill-rule:nonzero;stroke:none" />
          </g>
          <g
             transform="translate(604.8223,290.9844)"
             id="g2918">
            <path
               d="m 0,0 c -0.561,0.21 -1.37,0.352 -2.143,0.352 -0.74,0 -1.442,-0.106 -1.969,-0.318 l 0,-14.49 -5.806,0 0,18.008 c 2.11,0.808 4.891,1.372 8.23,1.372 1.127,0 2.078,-0.105 2.746,-0.212"
               id="path2920"
               style="fill:#155196;fill-opacity:1;fill-rule:nonzero;stroke:none" />
          </g>
          <g
             transform="translate(617.417,291.0547)"
             id="g2922">
            <path
               d="m 0,0 c -0.317,0.14 -1.09,0.281 -1.757,0.281 -2.463,0 -3.728,-2.146 -3.728,-5.31 0,-3.552 1.373,-5.417 3.8,-5.417 0.63,0 1.368,0.104 1.685,0.246 L 0,0 z m -1.58,-14.948 c -6.297,0 -9.707,3.517 -9.707,9.848 0,5.874 3.024,9.707 8.894,9.707 0.845,0 1.866,-0.175 2.393,-0.351 l 0,8.828 5.806,0 0,-26.66 c -1.479,-0.775 -4.293,-1.372 -7.386,-1.372"
               id="path2924"
               style="fill:#155196;fill-opacity:1;fill-rule:nonzero;stroke:none" />
          </g>
          <g
             transform="translate(634.4072,291.4063)"
             id="g2926">
            <path
               d="m 0,0 c -2.038,0 -3.093,-1.828 -3.093,-5.31 0,-3.484 1.055,-5.346 3.093,-5.346 2.042,0 3.098,1.862 3.098,5.346 C 3.098,-1.828 2.042,0 0,0 m 0,-15.3 c -5.66,0 -8.896,4.255 -8.896,9.919 0,5.662 3.236,9.883 8.896,9.883 5.665,0 8.899,-4.221 8.899,-9.883 C 8.899,-11.045 5.665,-15.3 0,-15.3"
               id="path2928"
               style="fill:#155196;fill-opacity:1;fill-rule:nonzero;stroke:none" />
          </g>
          <g
             transform="translate(656.2568,276.5283)"
             id="g2930">
            <path
               d="m 0,0 0,12.31 c 0,1.582 -0.95,2.532 -2.675,2.532 -0.807,0 -1.687,-0.176 -2.179,-0.386 l 0,-14.456 -5.803,0 0,18.008 c 2.11,0.808 4.607,1.372 7.912,1.372 5.945,0 8.548,-2.287 8.548,-6.401 L 5.803,0"
               id="path2932"
               style="fill:#155196;fill-opacity:1;fill-rule:nonzero;stroke:none" />
          </g>
          <path
             d="m 665.018,295.486 5.805,0 0,-18.958 -5.805,0 0,18.958 z m 2.886,2.603 c -1.759,0 -3.202,1.335 -3.202,2.99 0,1.653 1.443,3.025 3.202,3.025 1.758,0 3.236,-1.372 3.236,-3.025 0,-1.655 -1.478,-2.99 -3.236,-2.99"
             id="path2934"
             style="fill:#155196;fill-opacity:1;fill-rule:nonzero;stroke:none" />
          <g
             transform="translate(312.0078,261.1455)"
             id="g2936">
            <path
               d="m 0,0 c -1.15,0 -2.361,-0.19 -3.094,-0.477 l 0,-7.783 2.711,0 c 3.282,0 5.197,1.182 5.197,4.146 C 4.814,-1.563 3.284,0 0,0 m 5.739,-20.664 -3.253,7.302 c -0.702,1.562 -1.785,2.488 -3.539,2.488 l -2.041,0 0,-9.79 -3.539,0 0,22.197 c 1.72,0.764 4.178,1.242 6.567,1.242 5.55,0 8.42,-2.646 8.42,-6.728 0,-3.508 -2.2,-5.232 -4.942,-5.837 l 0,-0.064 c 1.18,-0.605 2.039,-1.785 2.713,-3.251 l 3.439,-7.559"
               id="path2938"
               style="fill:#46ae33;fill-opacity:1;fill-rule:nonzero;stroke:none" />
          </g>
          <path
             d="m 323.922,257.671 3.508,0 0,-17.189 -3.508,0 0,17.189 z m 1.756,3.125 c -1.149,0 -2.074,0.893 -2.074,1.977 0,1.084 0.925,1.978 2.074,1.978 1.146,0 2.072,-0.894 2.072,-1.978 0,-1.084 -0.926,-1.977 -2.072,-1.977"
             id="path2940"
             style="fill:#46ae33;fill-opacity:1;fill-rule:nonzero;stroke:none" />
          <g
             transform="translate(337.9199,240.1299)"
             id="g2942">
            <path
               d="m 0,0 c -3.83,0 -7.561,2.744 -7.561,8.962 0,6.219 3.731,8.929 7.561,8.929 1.877,0 3.345,-0.479 4.396,-1.18 L 3.25,14.191 c -0.7,0.511 -1.753,0.83 -2.805,0.83 -2.299,0 -4.4,-1.818 -4.4,-6.027 0,-4.209 2.168,-6.059 4.4,-6.059 1.052,0 2.105,0.319 2.805,0.83 L 4.396,1.182 C 3.314,0.446 1.877,0 0,0"
               id="path2944"
               style="fill:#46ae33;fill-opacity:1;fill-rule:nonzero;stroke:none" />
          </g>
          <g
             transform="translate(351.209,255.4688)"
             id="g2946">
            <path
               d="m 0,0 c -2.677,0 -4.432,-2.041 -4.497,-5.612 l 8.325,1.149 C 3.795,-1.467 2.295,0 0,0 M 7.143,-6.313 -4.271,-7.907 c 0.349,-3.094 2.357,-4.656 5.259,-4.656 1.723,0 3.573,0.415 4.752,1.052 l 1.021,-2.615 c -1.337,-0.703 -3.636,-1.213 -5.993,-1.213 -5.422,0 -8.453,3.477 -8.453,8.962 0,5.262 2.935,8.929 7.748,8.929 4.465,0 7.113,-2.933 7.113,-7.557 0,-0.415 0,-0.861 -0.033,-1.308"
               id="path2948"
               style="fill:#46ae33;fill-opacity:1;fill-rule:nonzero;stroke:none" />
          </g>
          <g
             transform="translate(369.1572,254.9902)"
             id="g2950">
            <path
               d="m 0,0 c -0.511,0.13 -1.118,0.193 -1.755,0.193 -0.99,0 -2.043,-0.161 -2.711,-0.447 l 0,-14.255 -3.476,0 0,16.328 c 1.657,0.701 4.112,1.211 6.664,1.211 0.767,0 1.435,-0.032 1.945,-0.127"
               id="path2952"
               style="fill:#46ae33;fill-opacity:1;fill-rule:nonzero;stroke:none" />
          </g>
          <g
             transform="translate(378.2695,240.1299)"
             id="g2954">
            <path
               d="m 0,0 c -3.828,0 -7.558,2.744 -7.558,8.962 0,6.219 3.73,8.929 7.558,8.929 1.88,0 3.348,-0.479 4.4,-1.18 l -1.148,-2.52 c -0.699,0.511 -1.752,0.83 -2.805,0.83 -2.297,0 -4.402,-1.818 -4.402,-6.027 0,-4.209 2.168,-6.059 4.402,-6.059 1.053,0 2.106,0.319 2.805,0.83 L 4.4,1.182 C 3.314,0.446 1.88,0 0,0"
               id="path2956"
               style="fill:#46ae33;fill-opacity:1;fill-rule:nonzero;stroke:none" />
          </g>
          <g
             transform="translate(394.6221,249.124)"
             id="g2958">
            <path
               d="m 0,0 c -3.507,-0.19 -7.015,-0.479 -7.015,-3.54 0,-1.819 1.403,-2.935 4.05,-2.935 1.114,0 2.423,0.193 2.965,0.447 L 0,0 z m -2.87,-8.994 c -4.945,0 -7.43,2.009 -7.43,5.39 0,4.783 5.103,5.645 10.3,5.933 l 0,1.084 c 0,2.168 -1.435,2.932 -3.635,2.932 -1.628,0 -3.602,-0.51 -4.753,-1.052 L -9.28,7.686 c 1.37,0.605 3.7,1.21 5.995,1.21 4.112,0 6.6,-1.594 6.6,-5.834 l 0,-10.843 C 2.073,-8.452 -0.447,-8.994 -2.87,-8.994"
               id="path2960"
               style="fill:#46ae33;fill-opacity:1;fill-rule:nonzero;stroke:none" />
          </g>
          <g
             transform="translate(415.9414,255.4688)"
             id="g2962">
            <path
               d="m 0,0 c -2.68,0 -4.434,-2.041 -4.496,-5.612 l 8.324,1.149 C 3.793,-1.467 2.293,0 0,0 M 7.143,-6.313 -4.271,-7.907 c 0.347,-3.094 2.357,-4.656 5.259,-4.656 1.723,0 3.573,0.415 4.75,1.052 l 1.023,-2.615 c -1.34,-0.703 -3.636,-1.213 -5.995,-1.213 -5.422,0 -8.454,3.477 -8.454,8.962 0,5.262 2.936,8.929 7.751,8.929 4.465,0 7.113,-2.933 7.113,-7.557 0,-0.415 0,-0.861 -0.033,-1.308"
               id="path2964"
               style="fill:#46ae33;fill-opacity:1;fill-rule:nonzero;stroke:none" />
          </g>
          <path
             d="m 433.657,240.481 3.604,0 0,23.088 -3.604,0 0,-23.088 z"
             id="path2966"
             style="fill:#46ae33;fill-opacity:1;fill-rule:nonzero;stroke:none" />
          <g
             transform="translate(451.1924,240.4814)"
             id="g2968">
            <path
               d="m 0,0 0,11.479 c 0,2.009 -1.21,3.254 -3.603,3.254 -1.275,0 -2.458,-0.224 -3.158,-0.509 l 0,-14.224 -3.476,0 0,16.328 c 1.724,0.7 3.924,1.211 6.601,1.211 4.819,0 7.143,-2.104 7.143,-5.74 L 3.507,0"
               id="path2970"
               style="fill:#46ae33;fill-opacity:1;fill-rule:nonzero;stroke:none" />
          </g>
          <g
             transform="translate(468.4043,240.4814)"
             id="g2972">
            <path
               d="m 0,0 0,11.479 c 0,2.009 -1.21,3.254 -3.604,3.254 -1.273,0 -2.456,-0.224 -3.156,-0.509 l 0,-14.224 -3.477,0 0,16.328 c 1.725,0.7 3.923,1.211 6.602,1.211 4.818,0 7.143,-2.104 7.143,-5.74 L 3.508,0"
               id="path2974"
               style="fill:#46ae33;fill-opacity:1;fill-rule:nonzero;stroke:none" />
          </g>
          <g
             transform="translate(482.2969,255.2471)"
             id="g2976">
            <path
               d="m 0,0 c -2.71,0 -4.05,-2.425 -4.05,-6.123 0,-3.699 1.34,-6.155 4.05,-6.155 2.71,0 4.053,2.456 4.053,6.155 C 4.053,-2.425 2.71,0 0,0 m 0,-15.117 c -4.88,0 -7.558,3.859 -7.558,8.962 0,5.102 2.678,8.928 7.558,8.928 4.88,0 7.561,-3.826 7.561,-8.928 0,-5.103 -2.681,-8.962 -7.561,-8.962"
               id="path2978"
               style="fill:#46ae33;fill-opacity:1;fill-rule:nonzero;stroke:none" />
          </g>
          <g
             transform="translate(501.0723,240.4814)"
             id="g2980">
            <path
               d="m 0,0 -4.018,0 -6.253,17.189 3.893,0 3.636,-11.481 C -2.328,4.465 -2.04,3.029 -2.04,3.029 l 0.062,0 c 0,0 0.288,1.436 0.67,2.679 l 3.667,11.481 3.891,0"
               id="path2982"
               style="fill:#46ae33;fill-opacity:1;fill-rule:nonzero;stroke:none" />
          </g>
          <g
             transform="translate(518.4746,249.124)"
             id="g2984">
            <path
               d="m 0,0 c -3.508,-0.19 -7.015,-0.479 -7.015,-3.54 0,-1.819 1.403,-2.935 4.05,-2.935 1.115,0 2.422,0.193 2.965,0.447 L 0,0 z m -2.87,-8.994 c -4.945,0 -7.43,2.009 -7.43,5.39 0,4.783 5.103,5.645 10.3,5.933 l 0,1.084 c 0,2.168 -1.435,2.932 -3.635,2.932 -1.628,0 -3.602,-0.51 -4.753,-1.052 L -9.28,7.686 c 1.37,0.605 3.7,1.21 5.995,1.21 4.112,0 6.6,-1.594 6.6,-5.834 l 0,-10.843 C 2.072,-8.452 -0.447,-8.994 -2.87,-8.994"
               id="path2986"
               style="fill:#46ae33;fill-opacity:1;fill-rule:nonzero;stroke:none" />
          </g>
          <g
             transform="translate(523.8867,240.4814)"
             id="g2988">
            <path
               d="m 0,0 7.59,14.414 -7.047,0 0,2.775 11.99,0 -7.588,-14.416 7.781,0 0,-2.773"
               id="path2990"
               style="fill:#46ae33;fill-opacity:1;fill-rule:nonzero;stroke:none" />
          </g>
          <path
             d="m 539.348,257.671 3.507,0 0,-17.189 -3.507,0 0,17.189 z m 1.755,3.125 c -1.148,0 -2.074,0.893 -2.074,1.977 0,1.084 0.926,1.978 2.074,1.978 1.147,0 2.072,-0.894 2.072,-1.978 0,-1.084 -0.925,-1.977 -2.072,-1.977"
             id="path2992"
             style="fill:#46ae33;fill-opacity:1;fill-rule:nonzero;stroke:none" />
          <g
             transform="translate(553.3418,255.2471)"
             id="g2994">
            <path
               d="m 0,0 c -2.71,0 -4.05,-2.425 -4.05,-6.123 0,-3.699 1.34,-6.155 4.05,-6.155 2.71,0 4.053,2.456 4.053,6.155 C 4.053,-2.425 2.71,0 0,0 m 0,-15.117 c -4.88,0 -7.558,3.859 -7.558,8.962 0,5.102 2.678,8.928 7.558,8.928 4.881,0 7.561,-3.826 7.561,-8.928 0,-5.103 -2.68,-8.962 -7.561,-8.962"
               id="path2996"
               style="fill:#46ae33;fill-opacity:1;fill-rule:nonzero;stroke:none" />
          </g>
          <g
             transform="translate(573.9648,240.4814)"
             id="g2998">
            <path
               d="m 0,0 0,11.479 c 0,2.009 -1.21,3.254 -3.603,3.254 -1.275,0 -2.455,-0.224 -3.157,-0.509 l 0,-14.224 -3.475,0 0,16.328 c 1.722,0.7 3.922,1.211 6.6,1.211 4.818,0 7.145,-2.104 7.145,-5.74 L 3.51,0"
               id="path3000"
               style="fill:#46ae33;fill-opacity:1;fill-rule:nonzero;stroke:none" />
          </g>
          <g
             transform="translate(587.9893,255.4688)"
             id="g3002">
            <path
               d="m 0,0 c -2.677,0 -4.435,-2.041 -4.497,-5.612 l 8.322,1.149 C 3.793,-1.467 2.298,0 0,0 M 7.143,-6.313 -4.272,-7.907 c 0.35,-3.094 2.357,-4.656 5.259,-4.656 1.723,0 3.574,0.415 4.753,1.052 l 1.021,-2.615 c -1.338,-0.703 -3.636,-1.213 -5.995,-1.213 -5.42,0 -8.451,3.477 -8.451,8.962 0,5.262 2.933,8.929 7.748,8.929 4.465,0 7.113,-2.933 7.113,-7.557 0,-0.415 0,-0.861 -0.033,-1.308"
               id="path3004"
               style="fill:#46ae33;fill-opacity:1;fill-rule:nonzero;stroke:none" />
          </g>
        </g>
      </g>
    </g>
  </g>
</svg>
